<svg width="88" height="88" viewBox="0 0 88 88" fill="none" xmlns="http://www.w3.org/2000/svg">
<g filter="url(#filter0_dd_2_9)">
<path d="M12 16C12 8.26801 18.268 2 26 2H62C69.732 2 76 8.26801 76 16V52C76 59.732 69.732 66 62 66H26C18.268 66 12 59.732 12 52V16Z" fill="#155DFC" shape-rendering="crispEdges"/>
<path d="M54.6666 35.3333C54.6666 42 49.9999 45.3333 44.4533 47.2667C44.1628 47.3651 43.8473 47.3604 43.5599 47.2533C37.9999 45.3333 33.3333 42 33.3333 35.3333V26C33.3333 25.6464 33.4737 25.3072 33.7238 25.0572C33.9738 24.8071 34.313 24.6667 34.6666 24.6667C37.3333 24.6667 40.6666 23.0667 42.9866 21.04C43.2691 20.7987 43.6284 20.6661 43.9999 20.6661C44.3714 20.6661 44.7308 20.7987 45.0133 21.04C47.3466 23.08 50.6666 24.6667 53.3333 24.6667C53.6869 24.6667 54.026 24.8071 54.2761 25.0572C54.5261 25.3072 54.6666 25.6464 54.6666 26V35.3333Z" stroke="white" stroke-width="2.66667" stroke-linecap="round" stroke-linejoin="round"/>
</g>
<defs>
<filter id="filter0_dd_2_9" x="0" y="0" width="88" height="88" filterUnits="userSpaceOnUse" color-interpolation-filters="sRGB">
<feFlood flood-opacity="0" result="BackgroundImageFix"/>
<feColorMatrix in="SourceAlpha" type="matrix" values="0 0 0 0 0 0 0 0 0 0 0 0 0 0 0 0 0 0 127 0" result="hardAlpha"/>
<feMorphology radius="4" operator="erode" in="SourceAlpha" result="effect1_dropShadow_2_9"/>
<feOffset dy="4"/>
<feGaussianBlur stdDeviation="3"/>
<feComposite in2="hardAlpha" operator="out"/>
<feColorMatrix type="matrix" values="0 0 0 0 0 0 0 0 0 0 0 0 0 0 0 0 0 0 0.1 0"/>
<feBlend mode="normal" in2="BackgroundImageFix" result="effect1_dropShadow_2_9"/>
<feColorMatrix in="SourceAlpha" type="matrix" values="0 0 0 0 0 0 0 0 0 0 0 0 0 0 0 0 0 0 127 0" result="hardAlpha"/>
<feMorphology radius="3" operator="erode" in="SourceAlpha" result="effect2_dropShadow_2_9"/>
<feOffset dy="10"/>
<feGaussianBlur stdDeviation="7.5"/>
<feComposite in2="hardAlpha" operator="out"/>
<feColorMatrix type="matrix" values="0 0 0 0 0 0 0 0 0 0 0 0 0 0 0 0 0 0 0.1 0"/>
<feBlend mode="normal" in2="effect1_dropShadow_2_9" result="effect2_dropShadow_2_9"/>
<feBlend mode="normal" in="SourceGraphic" in2="effect2_dropShadow_2_9" result="shape"/>
</filter>
</defs>
</svg>
